<?xml version="1.0" encoding="UTF-8" standalone="no"?>
<!DOCTYPE svg PUBLIC "-//W3C//DTD SVG 1.1//EN" "http://www.w3.org/Graphics/SVG/1.1/DTD/svg11.dtd">
<svg width="100%" height="100%" viewBox="0 0 5906 5906" version="1.1" xmlns="http://www.w3.org/2000/svg" xmlns:xlink="http://www.w3.org/1999/xlink" xml:space="preserve" xmlns:serif="http://www.serif.com/" style="fill-rule:evenodd;clip-rule:evenodd;stroke-linecap:round;stroke-linejoin:round;stroke-miterlimit:1.5;">
    <g transform="matrix(1.432218,0,0,1.432218,-1100.420754,-127.944799)">
        <circle cx="2830" cy="2151" r="1237" style="fill:none;stroke:rgb(178,34,34);stroke-width:43.64px;"/>
        <path d="M2525.885,976.407L2526.328,979.117C2525.464,979.299 2524.692,979.39 2524.01,979.39C2522.896,979.39 2522.032,979.214 2521.419,978.861C2520.805,978.509 2520.373,978.046 2520.123,977.472C2519.873,976.898 2519.748,975.691 2519.748,973.85L2519.748,963.434L2517.498,963.434L2517.498,961.048L2519.748,961.048L2519.748,956.565L2522.799,954.724L2522.799,961.048L2525.885,961.048L2525.885,963.434L2522.799,963.434L2522.799,974.02C2522.799,974.895 2522.853,975.458 2522.961,975.708C2523.069,975.958 2523.246,976.157 2523.49,976.304C2523.734,976.452 2524.084,976.526 2524.538,976.526C2524.879,976.526 2525.328,976.486 2525.885,976.407Z" style="fill-rule:nonzero;"/>
    </g>
    <g transform="matrix(3.85559,0,0,6.438494,-3343.422666,-3192.786459)">
        <path d="M1412.645,908.501L1792.976,908.501L1816.007,892.473C1816.007,892.473 1818.393,893.591 1823.165,895.827C1827.938,898.064 1833.747,900.798 1840.595,904.028C1847.442,907.259 1853.77,910.489 1859.58,913.72C1857.92,917.696 1852.525,919.684 1843.396,919.684L1418.247,919.684L1412.645,908.501ZM1359.112,946.895L1837.171,946.895L1862.07,928.257C1862.07,928.257 1864.767,929.562 1870.162,932.171C1875.557,934.781 1881.989,937.887 1889.459,941.49C1896.928,945.094 1903.568,948.635 1909.378,952.114C1908.133,956.09 1902.738,958.078 1893.194,958.078L1364.714,958.078L1359.112,946.895ZM1447.503,790.71L1812.272,790.71L1812.272,801.52L1447.503,801.52L1447.503,790.71ZM1447.503,830.222L1812.272,830.222L1812.272,841.405L1447.503,841.405L1447.503,830.222ZM1447.503,869.362L1812.272,869.362L1812.272,880.172L1447.503,880.172L1447.503,869.362ZM1441.901,894.709L1441.901,780.645L1476.759,790.71L1469.29,790.71L1469.29,888.372C1469.29,889.118 1467.111,890.36 1462.754,892.1C1458.396,893.839 1452.69,894.709 1445.636,894.709L1441.901,894.709ZM1794.22,790.71L1787.996,790.71L1806.047,778.409L1848.376,798.165C1846.301,799.407 1842.773,800.712 1837.794,802.079C1832.814,803.446 1827.419,804.502 1821.609,805.247L1821.609,882.781C1821.609,883.526 1820.157,884.458 1817.252,885.577C1814.347,886.695 1811.131,887.689 1807.604,888.559C1804.076,889.428 1800.653,889.863 1797.333,889.863L1794.22,889.863L1794.22,790.71ZM1619.306,790.71L1646.694,790.71L1646.694,949.877L1619.306,949.877L1619.306,790.71ZM1547.721,967.77C1557.681,973.485 1565.047,979.077 1569.819,984.544C1574.591,990.011 1577.392,995.043 1578.222,999.64C1579.052,1004.238 1578.534,1008.276 1576.666,1011.755C1574.799,1015.234 1572.101,1017.781 1568.574,1019.397C1565.047,1021.012 1561.104,1021.633 1556.747,1021.26C1552.39,1020.888 1548.344,1019.335 1544.609,1016.601C1546.269,1008.649 1546.373,1000.324 1544.92,991.626C1543.468,982.929 1541.289,975.473 1538.384,969.261L1547.721,967.77ZM1675.951,965.16C1691.72,969.385 1704.273,973.858 1713.61,978.58C1722.947,983.301 1729.691,987.961 1733.841,992.558C1737.99,997.155 1740.273,1001.38 1740.688,1005.232C1741.103,1009.084 1739.962,1012.19 1737.264,1014.551C1734.567,1016.912 1730.936,1018.278 1726.371,1018.651C1721.806,1019.024 1717.034,1017.968 1712.054,1015.483C1710.809,1007.531 1705.726,999.019 1696.803,989.949C1687.881,980.878 1678.648,973.61 1669.103,968.142L1675.951,965.16ZM1801.69,964.415C1823.269,968.142 1841.01,972.429 1854.912,977.275C1868.813,982.121 1879.499,987.153 1886.969,992.372C1894.439,997.59 1899.315,1002.436 1901.597,1006.909C1903.879,1011.382 1904.191,1015.234 1902.531,1018.465C1900.871,1021.695 1897.758,1023.746 1893.194,1024.615C1888.629,1025.485 1883.234,1024.802 1877.009,1022.565C1873.689,1016.104 1867.672,1009.456 1858.958,1002.623C1850.243,995.789 1840.18,989.328 1828.768,983.239C1817.356,977.151 1806.255,972.119 1795.465,968.142L1801.69,964.415ZM1619.306,1000.945L1667.236,1004.3C1666.821,1006.785 1665.057,1008.835 1661.945,1010.45C1658.833,1012.066 1653.749,1013.246 1646.694,1013.992L1646.694,1097.117L1619.306,1097.117L1619.306,1000.945ZM1419.492,1035.239L1782.393,1035.239L1808.537,1015.855C1808.537,1015.855 1810.197,1016.601 1813.517,1018.092C1816.837,1019.583 1820.987,1021.571 1825.967,1024.056C1830.946,1026.541 1836.237,1029.213 1841.84,1032.07C1847.442,1034.928 1852.733,1037.724 1857.713,1040.457C1856.053,1044.185 1850.451,1046.049 1840.906,1046.049L1424.472,1046.049L1419.492,1035.239ZM1352.265,1090.034L1838.416,1090.034L1866.427,1069.533C1866.427,1069.533 1868.087,1070.34 1871.407,1071.956C1874.727,1073.571 1879.084,1075.621 1884.479,1078.106C1889.874,1080.591 1895.372,1083.325 1900.975,1086.307C1906.577,1089.289 1911.868,1092.147 1916.848,1094.88C1915.603,1098.856 1910.208,1100.844 1900.663,1100.844L1357.867,1100.844L1352.265,1090.034ZM1429.451,967.024L1441.278,967.397C1443.768,978.083 1442.627,987.339 1437.855,995.167C1433.082,1002.995 1426.754,1009.332 1418.869,1014.178C1410.985,1019.024 1403.308,1022.689 1395.838,1025.174C1389.198,1027.659 1382.04,1029.088 1374.363,1029.461C1366.685,1029.834 1361.394,1028.405 1358.489,1025.174C1356.415,1022.441 1356.726,1019.832 1359.423,1017.346C1362.121,1014.861 1365.959,1012.749 1370.939,1011.01C1383.803,1008.028 1396.357,1002.623 1408.599,994.795C1420.841,986.967 1427.791,977.71 1429.451,967.024Z" style="fill:rgb(178,34,34);fill-rule:nonzero;"/>
    </g>
</svg>
